
<svg xmlns="http://www.w3.org/2000/svg" version="1.1" xmlns:xlink="http://www.w3.org/1999/xlink" preserveAspectRatio="none" x="0px" y="0px" width="1000px" height="1000px" viewBox="0 0 1000 1000">
<defs>
<g id="Layer0_0_FILL">
<path fill="#330000" stroke="none" d="
M 724.7 360.5
Q 724.7 327.55 701.35 304.25 678.05 280.95 645.1 280.95
L 354.9 280.95
Q 321.95 280.95 298.65 304.25 275.35 327.55 275.35 360.5
L 275.35 639.5
Q 275.35 672.55 298.65 695.75 321.95 719.05 354.9 719.05
L 645.1 719.05
Q 678.05 719.05 701.35 695.75 724.7 672.45 724.7 639.5
L 724.7 360.5
M 431.6 395.35
Q 431.4 393.45 433.2 393.2
L 481.65 393.2
Q 483.65 393.2 484.1 394.7
L 552.55 587.55
Q 553.4 590.5 550.65 590.5
L 511.45 590.5
Q 510.4 590.7 509.55 590.05 508.65 589.5 508.45 588.45
L 493 543.9 423.45 543.9 409.2 587.9
Q 408.95 589.1 407.9 589.95 406.95 590.7 405.65 590.6
L 370.35 590.6
Q 367.35 590.6 368.2 587.35
L 428.5 413.7
Q 429.05 412.1 430.35 407.5 431.6 401.7 431.6 395.35
M 576.95 384.6
Q 584 377.85 593.7 378.1 604.6 378.1 610.75 384.6 617.4 391.8 616.95 401.35 617.4 411.25 610.5 418.55 607 421.95 602.5 423.7 597.95 425.4 593.15 425.1 583.4 425.6 576.6 418.55 569.75 411.35 570.25 401.35 570.05 396.65 571.8 392.25 573.6 387.95 576.95 384.6
M 611.8 440.75
Q 614.2 440.75 614.2 443.45
L 614.2 587.6
Q 614.2 590.6 611.8 590.6
L 575 590.6
Q 572.3 590.6 572.3 587.6
L 572.3 443.45
Q 572.3 440.75 574.7 440.75
L 611.8 440.75
M 462.1 442.5
L 458.1 427.85 457.8 427.85
Q 455.35 439.6 451.45 452
L 442.8 479.7
Q 438.05 495.3 434.2 505.9
L 481.85 505.9 467.15 459.1
Q 464.35 450.4 462.1 442.5 Z"/>

<path fill="#FF9A00" stroke="none" d="
M 614.2 443.45
Q 614.2 440.75 611.8 440.75
L 574.7 440.75
Q 572.3 440.75 572.3 443.45
L 572.3 587.6
Q 572.3 590.6 575 590.6
L 611.8 590.6
Q 614.2 590.6 614.2 587.6
L 614.2 443.45
M 593.7 378.1
Q 584 377.85 576.95 384.6 573.6 387.95 571.8 392.25 570.05 396.65 570.25 401.35 569.75 411.35 576.6 418.55 583.4 425.6 593.15 425.1 597.95 425.4 602.5 423.7 607 421.95 610.5 418.55 617.4 411.25 616.95 401.35 617.4 391.8 610.75 384.6 604.6 378.1 593.7 378.1
M 433.2 393.2
Q 431.4 393.45 431.6 395.35 431.6 401.7 430.35 407.5 429.05 412.1 428.5 413.7
L 368.2 587.35
Q 367.35 590.6 370.35 590.6
L 405.65 590.6
Q 406.95 590.7 407.9 589.95 408.95 589.1 409.2 587.9
L 423.45 543.9 493 543.9 508.45 588.45
Q 508.65 589.5 509.55 590.05 510.4 590.7 511.45 590.5
L 550.65 590.5
Q 553.4 590.5 552.55 587.55
L 484.1 394.7
Q 483.65 393.2 481.65 393.2
L 433.2 393.2
M 458.1 427.85
L 462.1 442.5
Q 464.35 450.4 467.15 459.1
L 481.85 505.9 434.2 505.9
Q 438.05 495.3 442.8 479.7
L 451.45 452
Q 455.35 439.6 457.8 427.85
L 458.1 427.85 Z"/>
</g>
</defs>

<g transform="matrix( 1, 0, 0, 1, 0,0) ">
<use xlink:href="#Layer0_0_FILL"/>
</g>
</svg>
