
<svg xmlns="http://www.w3.org/2000/svg" version="1.1" xmlns:xlink="http://www.w3.org/1999/xlink" preserveAspectRatio="none" x="0px" y="0px" width="295px" height="370px" viewBox="0 0 295 370">
<defs>
<g id="Layer0_0_FILL">
<path fill="#FF944D" stroke="none" d="
M 182.5 1.45
L 182.5 92.5
Q 182.5 122.85 212.85 122.85
L 294 122.85 182.5 1.45 Z"/>

<path fill="#FF6600" stroke="none" d="
M 182.5 92.5
L 182.5 1.45 31.5 1.45
Q 1.15 1.45 1.15 31.8
L 1.15 340.6
Q 1.15 370.95 31.5 370.95
L 263.65 370.95
Q 294 370.95 294 340.6
L 294 122.85 212.85 122.85
Q 182.5 122.85 182.5 92.5
M 91.35 272
Q 97.35 275.05 100.1 279.5 102.8 284.05 102.8 289.7 102.8 296.3 99.2 301.8 95.55 307.45 89 310.3 82.5 313.1 72.45 313.1 55 313.1 48.25 306.45 41.5 299.7 40.7 289.3
L 60.8 288.1
Q 61.45 292.95 63.45 295.5 66.8 299.7 72.85 299.7 77.35 299.7 79.85 297.55 82.25 295.45 82.25 292.65 82.25 290 79.9 287.85 77.55 285.75 69.05 283.9 55.15 280.7 49.2 275.55 43.25 270.4 43.25 262.35 43.25 257.05 46.3 252.35 49.35 247.65 55.55 245 61.6 242.25 72.3 242.25 85.5 242.25 92.45 247.2 99.25 252.05 100.6 262.75
L 80.65 263.9
Q 79.85 259.25 77.35 257.15 74.75 255.1 70.25 255.1 66.55 255.1 64.65 256.65 62.85 258.2 62.85 260.4 62.85 262.05 64.35 263.35 65.85 264.7 71.5 265.95 85.35 268.9 91.35 272
M 144.3 292.8
L 159.5 243.45 181.05 243.45 155.65 312 132.65 312 106.75 243.45 128.9 243.45 144.3 292.8
M 245.3 250.75
Q 249.05 255.1 250.85 261.7
L 230.45 265.3
Q 229.25 261.45 226.2 259.4 223.15 257.35 218.45 257.35 211.55 257.35 207.4 262.2 203.3 267 203.3 277.45 203.3 288.6 207.45 293.4 211.6 298.15 219.05 298.15 222.65 298.15 225.9 297.1 229.05 296.1 233.25 293.6
L 233.25 287.15 219.05 287.15 219.05 272.9 251.85 272.9 251.85 302.1
Q 242.45 308.5 235.2 310.85 228 313.1 218.05 313.1 205.85 313.1 198.2 309 190.45 304.85 186.3 296.6 182.05 288.4 182.05 277.7 182.05 266.55 186.65 258.2 191.3 249.9 200.25 245.6 207.15 242.25 219 242.25 230.3 242.25 236 244.3 241.6 246.45 245.3 250.75 Z"/>

<path fill="#FFFFFF" stroke="none" d="
M 250.85 261.7
Q 249.05 255.1 245.3 250.75 241.6 246.45 236 244.3 230.3 242.25 219 242.25 207.15 242.25 200.25 245.6 191.3 249.9 186.65 258.2 182.05 266.55 182.05 277.7 182.05 288.4 186.3 296.6 190.45 304.85 198.2 309 205.85 313.1 218.05 313.1 228 313.1 235.2 310.85 242.45 308.5 251.85 302.1
L 251.85 272.9 219.05 272.9 219.05 287.15 233.25 287.15 233.25 293.6
Q 229.05 296.1 225.9 297.1 222.65 298.15 219.05 298.15 211.6 298.15 207.45 293.4 203.3 288.6 203.3 277.45 203.3 267 207.4 262.2 211.55 257.35 218.45 257.35 223.15 257.35 226.2 259.4 229.25 261.45 230.45 265.3
L 250.85 261.7
M 159.5 243.45
L 144.3 292.8 128.9 243.45 106.75 243.45 132.65 312 155.65 312 181.05 243.45 159.5 243.45
M 100.1 279.5
Q 97.35 275.05 91.35 272 85.35 268.9 71.5 265.95 65.85 264.7 64.35 263.35 62.85 262.05 62.85 260.4 62.85 258.2 64.65 256.65 66.55 255.1 70.25 255.1 74.75 255.1 77.35 257.15 79.85 259.25 80.65 263.9
L 100.6 262.75
Q 99.25 252.05 92.45 247.2 85.5 242.25 72.3 242.25 61.6 242.25 55.55 245 49.35 247.65 46.3 252.35 43.25 257.05 43.25 262.35 43.25 270.4 49.2 275.55 55.15 280.7 69.05 283.9 77.55 285.75 79.9 287.85 82.25 290 82.25 292.65 82.25 295.45 79.85 297.55 77.35 299.7 72.85 299.7 66.8 299.7 63.45 295.5 61.45 292.95 60.8 288.1
L 40.7 289.3
Q 41.5 299.7 48.25 306.45 55 313.1 72.45 313.1 82.5 313.1 89 310.3 95.55 307.45 99.2 301.8 102.8 296.3 102.8 289.7 102.8 284.05 100.1 279.5 Z"/>
</g>
</defs>

<g transform="matrix( 1, 0, 0, 1, 0,0) ">
<use xlink:href="#Layer0_0_FILL"/>
</g>
</svg>
